# xmcd CD database file
# Copyright (C) 1993-1998 Ti Kan
#
# Track frame offsets:
#  150
#  838
#  3153
#  5243
#  8798
#  12708
#  14993
#  16060
#  20510
#  24163
#  30915
#  32580
#  35035
#  35993
#  37335
#  38578
#  44818
#  47323
#  54910
#  65868
#  81253
#  93840
#  97850
#  105965
#  107785
#  109310
#
# Disc length: 1480 seconds
#
# Revision: 1
# Processed by: cddbd v1.4b41PL1 Copyright (c) Steve Scherf et al.
# Submitted via: CDWizzard Release:4.35
#
DISCID=3b05c61a
DTITLE=Jane Gipps and Ralph Harding - Halloween Vol. 1
DYEAR=1900
DGENRE=
TTITLE0=Scream!
TTITLE1=Lugging The Body Upstairs - Heavy Breathing
TTITLE2=Sawing Off It's Leg
TTITLE3=Digging the Grave
TTITLE4=Grwoling, Snarling, Slobbering Monster in Chains, Maniacal Laught
TTITLE4=er
TTITLE5=Witches and Demons Enjoy It
TTITLE6=Victim Doesn't
TTITLE7=Two Headed Monster Devouring Raw Flesh
TTITLE8=Gluttony and Belching from Satisfied Monsters
TTITLE9=Beating the Prisoner to Death, Death Throes
TTITLE10=Sharpening the Pendulum Axe
TTITLE11=Chopping and Hacking Up the Body
TTITLE12=Crunching the Bones
TTITLE13=Tightening the Thumbscrews
TTITLE14=Jane Screaming in Agony
TTITLE15=Monster's Bash
TTITLE16=Werewolf at Midnight
TTITLE17=Tumblers in Time
TTITLE18=Cosmic Lunacy
TTITLE19=Martian Graveyard
TTITLE20=Forest of Oz
TTITLE21=Lunar Quicksand
TTITLE22=Plutonium Ice Caves
TTITLE23=Honing the Light Sabre
TTITLE24=Stalactite and Stalagmite
TTITLE25=Laser Arrows
EXTD=
EXTT0=
EXTT1=
EXTT2=
EXTT3=
EXTT4=
EXTT5=
EXTT6=
EXTT7=
EXTT8=
EXTT9=
EXTT10=
EXTT11=
EXTT12=
EXTT13=
EXTT14=
EXTT15=
EXTT16=
EXTT17=
EXTT18=
EXTT19=
EXTT20=
EXTT21=
EXTT22=
EXTT23=
EXTT24=
EXTT25=
PLAYORDER=
